<?xml version="1.0" encoding="utf-8"?>
<!-- Generator: Adobe Illustrator 22.1.0, SVG Export Plug-In . SVG Version: 6.00 Build 0)  -->
<svg version="1.1" id="Capa_1" xmlns="http://www.w3.org/2000/svg" xmlns:xlink="http://www.w3.org/1999/xlink" x="0px" y="0px"
	 viewBox="0 0 31.3 31.3" style="enable-background:new 0 0 31.3 31.3;" xml:space="preserve">
<style type="text/css">
	.st0{fill:#FF6C00;}
</style>
<g transform="translate(-1 -1)">
	<g>
		<g>
			<path class="st0" d="M30.9,24.8l-6.1-4c-0.8-0.5-1.8-0.3-2.4,0.4l-1.8,2.3c-0.2,0.3-0.6,0.4-1,0.2l-0.3-0.2
				c-1.1-0.6-2.5-1.4-5.3-4.2s-3.6-4.2-4.2-5.3l-0.2-0.3c-0.2-0.3-0.1-0.7,0.2-1l2.3-1.8c0.7-0.6,0.9-1.6,0.4-2.4l-4-6.1
				C8,1.7,7,1.4,6.1,1.9L3.6,3.4C2.8,3.9,2.2,4.7,2,5.5c-0.9,3.3-0.2,9.1,8.2,17.6c6.7,6.7,11.8,8.5,15.2,8.5c0.8,0,1.6-0.1,2.3-0.3
				c0.9-0.2,1.7-0.8,2.1-1.6l1.5-2.5C31.9,26.4,31.7,25.3,30.9,24.8z M30.6,26.7L29,29.2c-0.3,0.6-0.9,1-1.5,1.2
				c-3.1,0.8-8.4,0.1-16.6-8S2.1,8.9,2.9,5.8c0.2-0.6,0.6-1.2,1.2-1.5l2.5-1.5C7,2.6,7.5,2.7,7.7,3l2.2,3.3l1.8,2.8
				c0.2,0.3,0.1,0.8-0.2,1l-2.3,1.8c-0.7,0.5-0.9,1.5-0.5,2.2L9,14.4c0.6,1.2,1.4,2.6,4.3,5.5c2.9,2.9,4.4,3.7,5.5,4.3l0.3,0.2
				c0.8,0.4,1.7,0.2,2.2-0.5l1.8-2.3c0.2-0.3,0.7-0.4,1-0.2l6.1,4C30.7,25.9,30.8,26.3,30.6,26.7z"/>
			<path class="st0" d="M18.7,6.7c4.7,0,8.5,3.8,8.5,8.5c0,0.3,0.2,0.5,0.5,0.5c0.3,0,0.5-0.2,0.5-0.5c0-5.2-4.3-9.5-9.5-9.5
				c-0.3,0-0.5,0.2-0.5,0.5C18.2,6.4,18.4,6.7,18.7,6.7z"/>
			<path class="st0" d="M18.7,9.7c3,0,5.5,2.5,5.5,5.5c0,0.3,0.2,0.5,0.5,0.5c0.3,0,0.5-0.2,0.5-0.5c0-3.6-2.9-6.5-6.5-6.5
				c-0.3,0-0.5,0.2-0.5,0.5S18.4,9.7,18.7,9.7z"/>
			<path class="st0" d="M18.7,12.7c1.4,0,2.5,1.1,2.5,2.5c0,0.3,0.2,0.5,0.5,0.5c0.3,0,0.5-0.2,0.5-0.5c0-1.9-1.6-3.5-3.5-3.5
				c-0.3,0-0.5,0.2-0.5,0.5C18.2,12.4,18.4,12.7,18.7,12.7z"/>
		</g>
	</g>
</g>
</svg>
