<?xml version="1.0" encoding="utf-8"?>
<!-- Generator: Adobe Illustrator 22.1.0, SVG Export Plug-In . SVG Version: 6.00 Build 0)  -->
<svg version="1.1" id="Слой_1" xmlns="http://www.w3.org/2000/svg" xmlns:xlink="http://www.w3.org/1999/xlink" x="0px" y="0px"
	 viewBox="0 0 311.5 163" style="enable-background:new 0 0 311.5 163;" xml:space="preserve">
<style type="text/css">
	.st0{fill-rule:evenodd;clip-rule:evenodd;fill:#2B2A29;}
	.st1{fill-rule:evenodd;clip-rule:evenodd;fill:#FEFEFE;}
	.st2{fill:#2B2A29;}
	.st3{fill:#CC3333;}
	.st4{fill:#E31E24;}
	.st5{fill-rule:evenodd;clip-rule:evenodd;fill:#CC3333;}
</style>
<path class="st0" d="M22.6,130.5C14.8,121.4,9,110.6,5.7,99.2c-0.9-2.9-1.5-5.9-2.1-8.9C2.2,81.8,2,73,3.5,64.5
	c1-6,2.7-11.8,5.2-17.4c-1.2-2-1.9-4.3-1.9-6.7c0-3.1,1-5.9,3.2-8.1c1.5-1.5,3.4-2.7,5.4-3.3c5.1-1.6,10.7-0.2,14.9,2.9
	c3.2,2.3,3.5,7.3,1.3,10.4c5.6,1.1,12.1,0.7,17.7-0.4c2.8-0.5,5.5-1.2,8.2-2.1c-2-1.9-2.9-4.5-2.9-7.2c-0.1-8.5,13.5-13.8,20.4-16.2
	c12.2-4.4,25-7.5,37.8-9.7c14-2.4,28.2-3.6,42.5-3.6c14.2,0,28.5,1.2,42.5,3.6c12.8,2.2,25.6,5.3,37.8,9.7
	c6.9,2.4,20.4,7.7,20.3,16.2c0,2.7-0.8,5.3-2.9,7.2c2.7,0.9,5.4,1.6,8.1,2.1c5.6,1.1,12.1,1.6,17.7,0.4c-2.2-3.1-1.8-8,1.3-10.4
	c4.2-3.1,9.7-4.5,14.9-2.9c2,0.6,4,1.8,5.4,3.3c2.2,2.2,3.2,5,3.2,8.1c0,2.4-0.7,4.6-1.9,6.7c2.5,5.5,4.2,11.3,5.2,17.2
	c1.9,11.6,1.1,23.5-2.2,34.8c-3.3,11.5-9.1,22.2-16.9,31.4c0.1,0.6,0.1,1.2,0.1,1.9c0,3.7-1.5,7.2-4.3,9.7c-1.1,0.9-2.3,1.7-3.6,2.3
	c1.4,1.8,2.1,4,2.1,6.3c0,2.5-0.7,4.9-2.5,6.8c-1.1,1.3-2.7,2.3-4.4,2.8c-1,0.3-2,0.4-3.1,0.4c-1.3,0-2.5-0.2-3.8-0.5
	c-1.6-0.4-2.8-1.6-3.5-3c-1.2,0-2.3,0-3.5-0.1c-0.7,0-1.4-0.1-2.1-0.2c-2.6-0.5-5.1-1.7-7-3.5c-2.5-2.4-3.6-5.5-3.6-8.9
	c0-3.3,1-6.2,3.3-8.6c-2.5,0.5-5,1.2-7.5,1.9c-3.2,0.9-6.5,1.9-9.7,2.9c-7.6,2.4-15.2,5-22.8,7.5c-10.7,3.6-21.8,6.4-33,8.2
	c-4.4,0.7-8.9,1.3-13.4,1.7c-3.5,0.3-7,0.5-10.5,0.5c-3.5,0-7-0.2-10.5-0.5c-4.5-0.4-8.9-1-13.4-1.7c-11.2-1.9-22.3-4.6-33-8.2
	c-7.6-2.5-15.2-5.1-22.8-7.5c-3.2-1-6.4-2-9.7-2.9c-2.5-0.7-4.9-1.3-7.5-1.9c2.3,2.4,3.3,5.3,3.3,8.6c0,3.4-1.1,6.5-3.6,8.9
	c-1.9,1.8-4.4,3-7,3.5c-0.7,0.1-1.4,0.2-2.1,0.2c-1.2,0.1-2.3,0.1-3.5,0.1c-0.7,1.4-1.9,2.5-3.6,3c-1.2,0.3-2.5,0.5-3.7,0.5
	c-1,0-2.1-0.1-3.1-0.4c-1.7-0.5-3.3-1.5-4.4-2.8c-1.7-1.9-2.5-4.3-2.5-6.8c0-2.3,0.7-4.4,2-6.3c-1.3-0.6-2.5-1.3-3.6-2.3
	c-2.8-2.5-4.3-6-4.3-9.7C22.5,131.8,22.5,131.2,22.6,130.5"/>
<path class="st1" d="M279.3,43.8c-5.9,1.2-12.7,0.7-18.6-0.4c-2.9-0.6-5.7-1.3-8.5-2.3l-2.5-0.9l2-1.8c1.8-1.6,2.4-3.8,2.4-6.1
	c0.1-7.4-13.2-12.5-19.2-14.6c-12.1-4.3-24.8-7.4-37.5-9.6c-13.9-2.4-28.1-3.6-42.2-3.6c-14.1,0-28.3,1.2-42.2,3.6
	c-12.7,2.2-25.4,5.3-37.5,9.6c-6,2.1-19.3,7.2-19.2,14.6c0,2.3,0.7,4.5,2.4,6.1l2,1.8l-2.5,0.9c-2.8,0.9-5.6,1.7-8.5,2.3
	c-5.8,1.2-12.7,1.6-18.6,0.4l-2.5-0.5l1.5-2c1.7-2.3,1.6-6.3-0.9-8.2c-3.8-2.8-8.7-4.1-13.3-2.6c-1.7,0.5-3.5,1.6-4.7,2.9
	c-1.9,1.9-2.7,4.3-2.7,7c0,2.1,0.6,4.1,1.7,5.9l0.4,0.7l-0.3,0.7c-2.4,5.4-4.2,11.2-5.1,17c-1.9,11.3-1,23,2.2,34
	c3.3,11.2,8.9,21.8,16.6,30.8l0.5,0.5l-0.1,0.7c-0.1,0.6-0.1,1.1-0.1,1.7c0,3.2,1.3,6.3,3.8,8.4c0.9,0.8,2,1.5,3.2,2l1.8,0.8
	l-1.2,1.6c-1.2,1.6-1.8,3.4-1.8,5.4c0,2.1,0.6,4.1,2,5.7c0.9,1,2.2,1.9,3.6,2.3c0.8,0.2,1.7,0.3,2.6,0.3c1.1,0,2.2-0.1,3.3-0.4
	c1.2-0.3,2-1.1,2.5-2.2l0.4-0.9h1c1.2,0,2.3,0,3.5-0.1c0.6,0,1.2-0.1,1.8-0.2c2.2-0.4,4.5-1.5,6.1-3c2.2-2.1,3.1-4.7,3.1-7.7
	c0-2.9-0.9-5.6-3-7.6l-3.9-3.8l5.4,1.1c2.7,0.5,5.3,1.2,7.9,2c3.3,0.9,6.5,1.9,9.7,2.9c7.7,2.4,15.3,5,22.9,7.5
	c10.6,3.5,21.6,6.3,32.7,8.1c4.4,0.7,8.8,1.3,13.2,1.7c3.4,0.3,6.9,0.5,10.3,0.5c3.4,0,6.9-0.2,10.3-0.5c4.4-0.4,8.8-1,13.2-1.7
	c11.1-1.8,22.1-4.6,32.7-8.1c7.6-2.5,15.2-5.1,22.9-7.5c3.2-1,6.5-2,9.7-2.9c2.6-0.7,5.2-1.4,7.9-2l5.4-1.1l-3.9,3.8
	c-2.2,2.1-3,4.7-3,7.6c0,2.9,0.9,5.6,3.1,7.7c1.6,1.5,3.9,2.6,6.1,3c0.6,0.1,1.2,0.2,1.8,0.2c1.2,0.1,2.3,0.1,3.5,0.1h1l0.4,0.9
	c0.5,1,1.3,1.8,2.5,2.1c1,0.3,2.2,0.4,3.3,0.4c0.9,0,1.7-0.1,2.6-0.3c1.4-0.4,2.7-1.2,3.6-2.3c1.4-1.6,2-3.6,2-5.7
	c0-2-0.6-3.8-1.8-5.3l-1.2-1.6l1.9-0.8c1.2-0.5,2.3-1.2,3.2-2c2.4-2.2,3.8-5.2,3.8-8.4c0-0.6,0-1.1-0.1-1.7L286,130l0.5-0.5
	c7.7-9,13.4-19.6,16.6-30.8c3.2-11,4-22.7,2.1-34.1c-1-5.8-2.7-11.5-5.1-16.9l-0.3-0.7l0.4-0.7c1.1-1.8,1.7-3.8,1.7-5.9
	c0-2.6-0.8-5-2.7-7c-1.3-1.3-3-2.3-4.7-2.9c-4.6-1.5-9.5-0.2-13.3,2.6c-2.4,1.8-2.6,5.9-0.9,8.2l1.5,2L279.3,43.8z"/>
<path class="st2" d="M242.2,75.4C241.6,72.6,236.4,75.1,242.2,75.4"/>
<path class="st2" d="M263.4,80c-1.7,0-3.4,1.7-5.5,5.4c-0.4,0.7-4.9,7.9-1.6,7.9c0.7,0,1.5-0.1,2.5-1c1-0.9,2.3-2.4,3.8-4.5l2.7-5.2
	C265.7,81.2,265.2,80,263.4,80 M267.9,91.1c1.2-1,2-2.3,3.6-4.2c0.4-0.3,0.6,0,0.4,0.3c-1.5,2.2-2.7,5-5.2,6.2c-2.2,1-5.7-0.4-5-3.1
	c-1.4,1.8-3.1,3-5.6,3.1c-2.5,0-3.9-1.8-3.6-4.1c-1.9,1.9-4.2,4.2-7.2,4.2c-8.5,0-5.6-8-4.3-12.7c0.7-2.6,1.1-4.3,1.1-4.9
	c-0.9,0-1.7,0-2.5-0.5c-1.5-0.8-0.5-1.9,0.6-1.8c1.1,0,2.7,0.3,3.3,1.3c3.8-2.1,5.6-8.7,8.7-11.8c1.8-1.7,4.2-2.6,7.1-2.7
	c0.6,0.1,0.6,0.3,0.2,0.5c-6.6,1.7-6.9,8.4-11.1,12.2c-1.3,1.1-2.8,2-4.4,2.6c1.3,3.2-1.6,15.5,2.5,15.8c6.2-0.8,7-13.7,17.2-12.9
	c1.8,0.2,2.8,0.7,2.8,1.9l0.7-1.3l4.1-0.4l-6,11.7C264.2,92.6,265.6,93,267.9,91.1z"/>
<path class="st2" d="M132,79.4c-1.7,0-3.4,1.7-5.5,5.4c-0.4,0.7-4.9,7.9-1.6,7.9c0.7,0,1.5-0.1,2.5-1c1-0.9,2.3-2.4,3.8-4.5l2.7-5.2
	C134.2,80.7,133.7,79.4,132,79.4 M133.1,93.1c0.8,0,1.6-0.8,2.7-1.8c1.1-1,2.3-2.5,4-4.4c0.5-0.4,0.7-0.2,0.4,0.3
	c-1.5,2.2-3.4,4.8-5.8,6.2c-3.3,1.5-4.9-0.9-4.3-3.5c-0.9,1.1-1.3,1.4-2,2c-1.7,1.4-4.9,2.4-6.5,0.4c-0.6-0.8-0.9-1.8-0.9-3
	c0-0.4,0-0.6,0-1c-1.6,2-3.7,5.3-6.6,5.3c-1.2,0-2.1-0.3-2.7-1c-0.6-0.7-0.9-1.5-0.9-2.5c0-1.4,0.5-2.3,1.2-3.6h-2.9l-3.6,6.9H101
	l6.2-11.5c0.5-1,0.9-2.1-0.3-2.3c-0.7-0.1-2.1,1.4-4.3,4.2c-0.7,1.1-1.5,2.1-2.2,3.2c-0.5,0.4-1.2,0.3-1.1-0.3l2.4-3.4
	c1.3-1.9,3-4.3,5.6-4.5c1.9,0,2.9,1.8,2.9,3.4c0,1.4-0.6,2.3-1.3,3.4h3l3.7-6.2l4-0.3l-6.2,11.5c-0.4,0.9-0.4,2.2,1,2.4
	c1.2,0,2.6-1.8,4.1-3.5l2.8-3.7c2.5-3.6,5.4-7.1,10.5-7c1.8,0.1,2.8,0.8,2.8,2l0.7-1.3l4.1-0.4l-6,11.7
	C133.3,91,132.1,93,133.1,93.1z"/>
<path class="st2" d="M229.4,83.3c2.4-6.1,4.1-11.9,8.9-17l-2.1,0.6c-2.3,0.8-6.4,1.7-6.6-1.9c0-0.8,0.3-1.9-0.8-2
	c-1.7,0-4.1,3-5,4.3c-0.1,0-0.5,0.4-0.3-0.1c1-1.8,2.3-3.2,3.9-4.2c2.2-1.4,5.6-2.9,5.8,0.9c0,1.3,0.6,1.8,2,2.1
	c1.4,0,2.3-0.3,4-1.3c1.4-0.8,2.6-1.9,3.7-3.3c0.5-0.6,1.1-0.3,0.9,0.3c-1.6,2.4-2.6,4.7-3.7,7.3c-1.8,5.1-3.3,11-6.1,15.8
	c-11.5,21.3-31.1,2.6-12.3-0.9c0.2-0.1,1,0.1,0.3,0.4C210.1,88.3,223.8,100.4,229.4,83.3"/>
<path class="st2" d="M74.7,87.3c0-1.9,0.6-3.6,1.7-5.2c1.7-2.3,5.3-3.2,7.7-1.3c0.8,0.6,1.2,1.5,1.3,2.6c0,2.4-2,3.7-4.1,4.4
	c-0.1-0.1-0.1-0.3,0-0.4c1.8-1.2,3.5-4.6,1-6c-1.4-0.9-3.2-0.1-4.3,1.3c-3.5,4.6-1.2,9.4,4.7,9.5c3.2,0,5.5-1.3,7.8-5.4
	c1.5-3.1,2.3-5.9,2.3-8.2c0-1.2-0.3-2-0.8-2.5l-1.7,0.5l-1,0.2l-0.9,0c-1,0-1.5-0.3-1.5-0.8c0-0.4,0.2-0.7,0.7-0.9
	c0.5-0.2,1.2-0.3,2-0.3l2,0.1c1.7-1.1,3-2.7,3.9-5c2.2-5.6-1.4-10.8-8.1-6.6c-1.6,1-2.6,2.5-3,3.3c-0.7,1.2-1.6,0.6-1.1-0.6
	c0.7-1.6,1.9-3,3.6-4.1c3.2-2.3,8.5-2.8,11.8-0.2c1.3,1.1,2,2.7,2.1,4.8c0,4.5-2.9,7.9-7.5,8.8c1.1,0.2,2.1,1,2.9,2.4
	c0.8,1.3,1.2,2.7,1.2,4.3c0,2.7-1,5.2-3,7.5c-2.6,2.7-6.6,4.1-11.9,4.2c-2.6,0-4.5-0.7-5.8-2C75.4,90.6,74.8,89.2,74.7,87.3"/>
<path class="st3" d="M200.1,95.6c-2.8,0.8-5.3,2.1-7.5,3.9c-2.1,1.9-3.2,3.8-3.2,5.8c0,0.6,0.2,1.1,0.4,1.5c0.3,0.4,0.8,0.6,1.5,0.6
	c1,0,2-0.6,3-1.7c0.6-0.6,1.5-2.1,2.7-4.4L200.1,95.6z M197.2,91.3c0.9,3.3,6.3-2.6,6.8-3.4l3.5-6.5
	C205.5,74.3,196.6,88.4,197.2,91.3z M202.6,90.8c-1.1,1.5-3.2,2.7-5.1,2.7c-2.5,0-3.9-2-3.6-4.1c-1.5,1.9-3.6,4.5-6.3,4.5
	c-3.2,0-4.6-3.4-3.2-6l2-4.1l-3,3.2c-0.5,0.3-0.6-0.2-0.4-0.5l5.5-7.2l4.6-0.3l-6.3,11.5c0.8,3.6,4.2-0.5,7.6-3.8
	c0.2-3.3,10.6-13.4,13.8-6.6l0.4-0.8l4.2-0.4l-7,13.3c4.3-1,4.5-2.7,7.1-5.6c0.7-0.5,1,0.1,0.8,0.6c-1.8,3.6-3.7,6.3-9,7.4l-4.1,7.7
	c-1,1.9-2.4,3.4-4.1,4.4c-1.6,1-3.4,1.5-5.3,1.6c-1.2,0-2.1-0.3-2.6-1c-0.6-0.6-0.9-1.4-0.9-2.4c0-1.7,0.8-3.3,2.3-4.8
	c2-2,5.5-3.7,10.4-5.1L202.6,90.8z"/>
<path class="st4" d="M193.8,71.4c0.5,0,0.9,0.2,1.2,0.5c0.3,0.3,0.4,0.7,0.4,1.2c0,0.5-0.2,1-0.6,1.5c-0.3,0.4-0.9,0.6-1.7,0.7
	c-0.6,0-1.1-0.1-1.4-0.4c-0.3-0.3-0.5-0.7-0.5-1.2c0-0.6,0.2-1.1,0.6-1.6C192.4,71.6,193,71.4,193.8,71.4"/>
<path class="st3" d="M168.2,90.1c3.2,4.2,8.7,0.6,10.4-2.2c2.8-3.5,4.2-11.4-1.3-12c-6.1,0-6.8,8.1-6.5,12.3c-0.2,0.5-0.3,0.2-0.5,0
	c-1.2-3.8-1.5-8.4,1.3-11.6c1.5-1.7,3.4-2.5,5.8-2.6c2,0,3.5,0.6,4.6,1.8c1,1.1,1.5,2.7,1.6,4.6c0,3.2-1.1,6.1-3.3,8.8
	c-2.4,2.9-4.7,4.4-8.1,4.5c-2.2,0-4.5-0.7-5.7-2.1c-2.1-2.7-1.4-6.2-0.8-9.3c-1.7,2.2-3,4.4-5.2,6.6c-3.4,3.1-7.3,4.7-11.8,4.7
	c-1.5,0-3.1-0.2-4.4-1.2c-0.9-0.8-1.4-1.7-1.4-2.7c0-0.8,0.3-1.5,0.8-2.2c0.5-0.7,1.3-1.2,2.3-1.5c0.8-0.1,1.1,0.4,0.4,0.5
	c-1.5,0.5-2,1.2-2,2.8c0,2.5,2.3,2.8,4.3,3c3.1,0,5.6-1,8.5-4.2c4.8-5.3,7.5-13.5,7.9-20.5c-0.7-3.6-1.8-4.8-4.7-5.4
	c-4,0-6.7,1.1-9.4,4c-3.8,4.1-5.8,12.2,1.2,12.2c3.7,0,5.5-3.2,6.2-6.1c0.3-2.1,0.5-4,0.5-6.1c0.2-0.7,0.4-0.4,0.5,0.1
	c0.8,3.9,1.6,8.3-1.4,11.7c-2.4,2.7-8.1,3.6-10.6,0.6c-3.3-3.9-0.5-10.1,2.5-13.2c3.4-3.4,9.4-5.7,14.2-4c5.1,1.6,5.9,5.5,5.3,9.9
	c5.9-17.9,21.5-7,13-2.2c-0.5,0.1-0.9,0.1-0.4-0.4c6.3-4.3-5.8-11.1-11.2,1.9C168.6,75.7,165.5,84.8,168.2,90.1"/>
<path class="st5" d="M57.3,70l-0.2,5.9c0,0-0.2,2.3-0.2,3c0,0.7,0.5,0.8,0,1.6c-0.5,0.8-0.7,2.1,0.2,3.7c0.9,1.5-1.5,0.8-0.8,2.8
	c0.7,2-0.2,3.5-0.7,4.5c-0.5,1-2.4,5.4-3,7.3c-0.6,1.9-2.4,7.7-4.6,9c-2.2,1.3-3.2,2-10.8,1c0,0-1.9,0.2-2,1c0,0.1,0,0.1,0,0.2v0
	c0,0.7,0.8,1.3,3.4,2c2.9,0.8,12,2.6,18.9-0.2c4.2-1.7,5.6-7.6,9.5-8.6c4-1,3.4,7.3,3.4,9.1h1.6c0,0-1.4-6.5,0.2-10
	c1.6-3.5,2.8-3.8,0.9-7c-1.9-3.2-4.4-4.7-3.7-6.8c0.7-2.1,1.9-2,1.5-3.4c-0.3-1.4-1.2-2-0.1-5.3c1.1-3.2,3.3-8.4,3-16.4
	c-0.3-8-0.1-8.9-0.1-8.9s-6.4,0-7.5-0.2c-1.1-0.2-5.2-0.4-7-0.4c-1.8,0-3.2,0.9-3.2,0.9S57,64.1,57.3,70"/>
<path class="st0" d="M92.3,98.9c0.1,0.8,0.7,1.1,1.4,0.9c0.1,0.8,1,1.1,1.6,1.1c0.3,0.6,1.1,1.1,1.8,0.9c0,0.6,0.7,0.8,1.2,1.1
	c0.2,0.2,0,0.5,0,0.7c2.8,1.4,5.9,3.7,10.5,4c1.9,0.1,3.8,0.3,4.7,1.5c0.1,0.2,0.1,0.5,0.3,0.7c0.3,0.4,0.6,0.6,0.7,1
	c0,0,0,0.1,0,0.1c0,1.6-3.8,3-5.1,3.4c-2.9,1-5.9,1.4-9.3,1.5h-0.2c-0.7,0-1.3,0-2,0c-5.9-0.3-8.8-2.9-13.2-4.5
	c-0.7,0.2-0.7,1.1-1.2,1.5c-1.9-0.2-5.1-0.6-7-1.2c-0.5-0.1-1.4-0.6-1.5-0.9c-0.2-0.3-0.3-1.5-0.3-2.4v-0.1c0-0.4,0-0.7,0.1-1
	c0-0.2,0.2-0.4,0.3-0.6c-0.4-2.4-0.1-5.4,0.7-7.2c0.5-0.5,1-0.9,2.3-0.7c1.6,0.2,3.8,1.1,6,1.2c1.2,0.1,3,0.1,3.9-0.4
	c0.5-0.3,0.5-0.9,1.2-1.1c1,0.1,2.1-0.2,2.7,0.6C91.9,99.1,91.9,98.9,92.3,98.9"/>
<path class="st0" d="M204.6,98.3c32.9,0,65.7,0,98.6,0c-0.6,2-1.2,3.9-1.9,5.9h-100c0.5-0.6,0.9-1.2,1.3-1.9L204.6,98.3z"/>
<path class="st5" d="M92.7,98.3h97.7c-0.9,0.5-1.6,1.1-2.2,1.7c-1.4,1.4-2.1,2.7-2.3,4.2h-84.5c-1.1-0.6-0.4-0.7-0.9-1.2
	c-0.4-0.4-1.2-0.5-1.2-1.1c-0.7,0.2-1.5-0.3-1.8-0.9c-0.6,0.1-1.5-0.2-1.6-1.1c-0.7,0.2-1.3-0.1-1.4-0.9
	C94.1,98.9,92.9,99.1,92.7,98.3"/>
<path class="st0" d="M7.2,98.3h44.2c-0.1,0.2-0.1,0.4-0.2,0.5c-0.3,1-1,3.3-2,5.4H9.1C8.4,102.2,7.8,100.2,7.2,98.3"/>
<path class="st0" d="M288.9,47.2c-5.9,2.5-17.1,4.2-30.4,1.4c-5.9-1.2-11.8-3-17.5-5.5c-5.8-2.5-9-4.8-11.4-6.9
	c-3-2.7-3.6-4.2-3.6-5.5c0-1.8,1.4-3,3.3-3.4c2.1-0.3,4.6,0.5,6.8,0.6c2,0.1,2.8-0.6,2.8-1.5c0-0.9-0.4-2.3-6.7-4.5
	c-14.2-4.2-43-11.2-77.2-11.2c-34.2,0-63,7-77.2,11.2c-6.3,2.2-6.7,3.6-6.7,4.5c0,0.9,0.8,1.5,2.8,1.5c2.3-0.1,4.7-1,6.8-0.6
	c2,0.3,3.3,1.6,3.3,3.4c0,1.3-0.6,2.8-3.6,5.5c-2.4,2.1-5.6,4.4-11.4,6.9c-5.7,2.5-11.5,4.3-17.5,5.5c-13.3,2.7-24.5,1.1-30.4-1.4
	c-7.1-3.1-9.2-6.9-9.2-8.9c0-3,3.3-5.1,7.2-5.3c1.9-0.1,4.6,0.4,7.4,2.4l0,0.3c-3.3,0.4-6.1,2.6-6.1,5c0,1.5,1.2,3.9,8.2,5.8
	c4.7,1.3,12.1,1.7,21.1-0.1c7-1.4,12.4-3.4,16.3-5.5c5.1-2.7,5.5-4.3,5.5-5.2c0-0.8-0.5-1.6-1.3-2c-0.4-0.2-0.7-0.4-4.3-0.4
	c-4.9,0.1-6.1-1.3-6.1-3.1c0-2.3,4.9-7.2,16.4-11.2c18.5-6.5,50-12.7,78.7-12.7c28.8,0,60.1,6.2,78.6,12.7
	c11.5,4,16.4,8.9,16.4,11.2c0,1.9-1.2,3.2-6.1,3.1c-3.6-0.1-3.9,0.2-4.3,0.4c-0.8,0.4-1.3,1.1-1.3,2c0,1,0.4,2.5,5.5,5.2
	c3.9,2,9.3,4.1,16.3,5.5c9,1.8,16.4,1.3,21.1,0.1c7-1.9,8.2-4.3,8.2-5.8c0-2.4-2.8-4.5-6.1-5l0-0.3c2.8-2,5.6-2.4,7.4-2.4
	c4,0.2,7.2,2.4,7.2,5.3C298.1,40.3,296.1,44.1,288.9,47.2"/>
<path class="st0" d="M280.3,134.4c-2.6,2.3-6.3,2.4-9.7,3.3c-2.6,0.7-3.9,2.1-3.9,3.7c0,1.7,1.5,3.3,4.9,3.8c0.1,0,2,0,3,0.5
	c1.2,0.6,1.9,1.7,1.9,2.7c0,1.9-1.8,3.2-4.3,3.2c-0.7,0-1.7-0.1-2.5-0.3c0.7-0.3,1.1-0.9,1.1-1.4c0-0.8-0.7-1.7-3.3-1.7
	c-5.3,0-6.3,0-7.2-0.2c-3.8-0.7-5.9-2.9-5.9-5.6c0-2.9,2.1-4.6,5.4-5.6c3.5-1.1,7.6-1.1,10.8-3c1.6-1,2.5-2.3,2.5-3.8
	c0-2.3-2.4-4.6-7.9-4.6c-19.4,0-37.1,8.3-55.2,14.2c-23.3,7.6-42.7,10-54.7,10c-12,0-31.4-2.3-54.7-10
	c-18.1-5.9-35.8-14.2-55.2-14.2c-5.5,0-7.9,2.3-7.9,4.6c0,1.5,0.9,2.9,2.5,3.8c3.2,1.9,7.2,1.9,10.8,3c3.3,1,5.4,2.6,5.4,5.6
	c0,2.7-2.1,4.9-5.9,5.6c-0.9,0.2-1.9,0.2-7.2,0.2c-2.6,0-3.3,0.9-3.3,1.7c0,0.5,0.4,1.1,1.1,1.4c-0.9,0.2-1.8,0.3-2.5,0.3
	c-2.6,0-4.3-1.3-4.3-3.2c0-1,0.7-2.1,1.9-2.7c1-0.5,2.9-0.5,3.1-0.5c3.3-0.4,4.9-2,4.9-3.8c0-1.6-1.2-3-3.9-3.7
	c-3.4-0.9-7.1-1.1-9.7-3.3c-1.3-1.1-2-2.7-2-4.2c0-3.7,4.5-8.6,16.7-8.6c20,0,38.4,8.5,56.9,15.1c20.5,7.3,39.5,10,53.5,10
	c14.1,0,33.1-2.7,53.5-10c18.5-6.6,36.9-15.1,56.9-15.1c12.2,0,16.7,4.9,16.7,8.6C282.3,131.7,281.6,133.3,280.3,134.4"/>
</svg>
