<?xml version="1.0" encoding="utf-8"?>
<!-- Generator: Adobe Illustrator 22.1.0, SVG Export Plug-In . SVG Version: 6.00 Build 0)  -->
<svg version="1.1" id="Capa_1" xmlns="http://www.w3.org/2000/svg" xmlns:xlink="http://www.w3.org/1999/xlink" x="0px" y="0px"
	 viewBox="0 0 16.3 15.7" style="enable-background:new 0 0 16.3 15.7;" xml:space="preserve">
<g>
	<g>
		<g>
			<path d="M16.3,2.7c-0.1-0.1-0.1-0.1-0.3-0.1H3.3L3,0.8c0-0.1-0.2-0.3-0.3-0.3h-2c-0.2,0-0.3,0.1-0.3,0.3s0.1,0.3,0.3,0.3h1.7
				L4,9.3c0.2,1.1,1.2,1.9,2.3,1.9h7.7c0.2,0,0.3-0.1,0.3-0.3s-0.1-0.3-0.3-0.3H6.3c-0.5,0-1.1-0.3-1.3-0.7l9.7-1.3
				c0.1,0,0.3-0.1,0.3-0.3l1.3-5.3C16.3,2.9,16.3,2.7,16.3,2.7z M14.4,7.9L4.7,9.1l-1.2-6h12.1L14.4,7.9z"/>
		</g>
	</g>
	<g>
		<g>
			<path d="M6,11.9c-0.9,0-1.7,0.7-1.7,1.7c0,0.9,0.7,1.7,1.7,1.7c0.9,0,1.7-0.7,1.7-1.7C7.7,12.6,6.9,11.9,6,11.9z M6,14.5
				c-0.5,0-1-0.5-1-1s0.5-1,1-1s1,0.5,1,1S6.5,14.5,6,14.5z"/>
		</g>
	</g>
	<g>
		<g>
			<path d="M12.7,11.9c-0.9,0-1.7,0.7-1.7,1.7c0,0.9,0.7,1.7,1.7,1.7c0.9,0,1.7-0.7,1.7-1.7S13.6,11.9,12.7,11.9z M12.7,14.5
				c-0.5,0-1-0.5-1-1s0.5-1,1-1s1,0.5,1,1S13.2,14.5,12.7,14.5z"/>
		</g>
	</g>
</g>
</svg>
